<?xml version="1.0" encoding="UTF-8"?>
<svg version="1.1" xmlns="http://www.w3.org/2000/svg" width="400" height="187">
<path d="M0 0 C0 5.94 0 11.88 0 18 C7.59 18 15.18 18 23 18 C23 25.59 23 33.18 23 41 C28.94 41 34.88 41 41 41 C41 53.48913684 37.45930023 62.72111359 29 72 C19.44260161 80.6563642 8.41234398 83.79101531 -4.328125 83.375 C-15.76704082 82.2067703 -25.36700888 77.21932476 -33.1015625 68.6796875 C-41.0078804 58.21643275 -43.32158817 46.94055087 -42 34 C-39.89096027 23.08571939 -34.13452708 13.77588863 -25.25 7.0625 C-17.04324992 1.81017995 -9.71680034 0 0 0 Z M-17.33984375 27.1796875 C-21.46311442 31.70073252 -23.15591188 36.90830031 -23 43 C-21.82846354 50.11646086 -18.26705166 55.19635846 -13 60 C-8.00636945 63.29367122 -2.67803989 64.60549168 3.23046875 63.6328125 C10.50436459 61.604635 15.91682534 57.29275995 19.9375 50.9375 C21.25923762 47.56019375 21.25923762 47.56019375 22 42 C14.41 42 6.82 42 -1 42 C-1 34.41 -1 26.82 -1 19 C-7.35854812 19 -12.96092625 23.01841003 -17.33984375 27.1796875 Z " fill="#FFFFFF" transform="translate(62,52)"/>
<path d="M0 0 C2.06483593 1.57320833 3.89330633 3.07589592 5.625 5 C4.50833826 8.34998521 3.87805075 8.79340222 1.0625 10.6875 C0.10150391 11.34298828 0.10150391 11.34298828 -0.87890625 12.01171875 C-1.37261719 12.33785156 -1.86632812 12.66398437 -2.375 13 C-3.2825 12.175 -4.19 11.35 -5.125 10.5 C-10.15797281 6.89184027 -15.42656128 7.2471378 -21.375 8 C-27.04612412 9.9241314 -29.87285227 13.14591931 -32.625 18.375 C-34.32764189 24.33424663 -33.55556361 28.87194547 -30.65234375 34.203125 C-28.03060285 37.89120089 -24.5656716 39.60310947 -20.375 41 C-14.2973527 41.50647061 -10.14799197 40.98756291 -5.375 37 C-3.77674724 35.06700993 -2.62201815 33.19475195 -1.375 31 C-5.665 30.67 -9.955 30.34 -14.375 30 C-14.375 26.37 -14.375 22.74 -14.375 19 C-5.795 19 2.785 19 11.625 19 C11.625 33.92608064 9.91701768 40.56528537 -0.375 51 C-6.31671576 55.10863324 -17.33488187 54.64917557 -24.25 53.4375 C-32.66045754 51.04582563 -38.99759195 45.44876976 -43.375 38 C-46.64647692 30.8945817 -47.2647 22.75102516 -45.22265625 15.19140625 C-41.99169485 6.83855212 -36.2555152 0.76237724 -28.1796875 -3.03125 C-18.18498272 -6.79232358 -9.0871835 -5.38499763 0 0 Z " fill="#FFFFFF" transform="translate(157.375,71)"/>
<path d="M0 0 C4.04864448 3.53406856 6.38928468 7.91353057 8 13 C8 16.3 8 19.6 8 23 C-9.325 23.495 -9.325 23.495 -27 24 C-22.50594521 28.87854664 -22.50594521 28.87854664 -17 31 C-12.41160294 30.91806434 -10.55649165 30.48545016 -7.0625 27.4375 C-6.381875 26.633125 -5.70125 25.82875 -5 25 C-3.5164999 25.42257276 -2.03823576 25.86356322 -0.5625 26.3125 C0.26121094 26.55613281 1.08492188 26.79976562 1.93359375 27.05078125 C2.61550781 27.36402344 3.29742187 27.67726562 4 28 C4.33 28.99 4.66 29.98 5 31 C1.97423339 36.68844123 -1.89156825 39.96385608 -8 42 C-18.13042531 42.7852045 -24.88000023 42.18909072 -32.75 35.75 C-38.17784541 29.11596673 -39.6949229 23.775101 -39.375 15.1171875 C-38.46461582 7.54961898 -34.83970073 3.11720848 -28.99609375 -1.58984375 C-19.9714454 -7.9653781 -8.64216977 -5.93856151 0 0 Z M-26 10 C-26.33 10.99 -26.66 11.98 -27 13 C-19.41 13 -11.82 13 -4 13 C-7.8468004 7.48448472 -7.8468004 7.48448472 -12.953125 5.76171875 C-18.48489865 5.58297096 -21.66503878 6.20690893 -26 10 Z " fill="#FFFFFF" transform="translate(292,80)"/>
<path d="M0 0 C0 -0.66 0 -1.32 0 -2 C3.63 -2 7.26 -2 11 -2 C11 12.85 11 27.7 11 43 C6.33333333 43 1.66666667 43 -3 43 C-3.99 43.33 -4.98 43.66 -6 44 C-14.7014367 44.8542785 -21.83982898 44.30862589 -29 39 C-34.69435227 33.76735197 -36.67416982 27.62442632 -37 20 C-36.3989456 12.33054588 -33.27833756 6.92910616 -27.625 1.75 C-19.19271317 -5.06000755 -9.43751073 -4.19444921 0 0 Z M-25.375 14.875 C-26.75785693 19.57671357 -26.57576982 22.93071319 -24.25 27.25 C-21.19537385 30.98343196 -19.41551883 32.59167726 -14.75 33.9375 C-9.92598526 34.01790025 -6.90698789 32.76304999 -3 30 C0.07106776 26.54504877 0.47865149 23.39750406 0.28515625 18.921875 C-0.31001443 14.91058771 -2.44099508 12.62676309 -5.0625 9.6875 C-13.14375342 5.04507782 -20.15744908 7.76015783 -25.375 14.875 Z " fill="#FFFFFF" transform="translate(208,78)"/>
<path d="M0 0 C4.66347826 4.07075801 7.55532907 9.42636413 8.3203125 15.57421875 C8.63730619 23.1503679 7.34229195 29.35069167 2.12890625 35.04296875 C-4.50720805 41.12711891 -9.81811451 42.48649824 -18.77734375 42.3046875 C-26.47420622 41.57698414 -30.65819393 37.82541501 -35.5546875 32.09765625 C-39.85954691 25.84979273 -39.69440406 19.34465836 -39 12 C-37.25657385 5.28008528 -32.53784767 0.91225638 -27 -3 C-18.00711498 -7.59636345 -8.00993262 -5.50411283 0 0 Z M-26 10 C-28.19982866 13.76099739 -29 16.20406704 -29 20.5625 C-27.53468242 25.59952918 -25.23593866 28.61009218 -20.6875 31.4375 C-15.72624619 32.47590196 -11.65586276 31.8831268 -7.1875 29.5 C-4.11706483 25.99093123 -2.61604534 22.63174828 -2 18 C-2.57659811 13.37909403 -4.27794987 10.68766679 -7.625 7.5 C-14.39884321 4.48940302 -20.40656287 4.8060941 -26 10 Z " fill="#FFFFFF" transform="translate(372,80)"/>
<path d="M0 0 C3.3 0 6.6 0 10 0 C10 3.3 10 6.6 10 10 C13.96 10 17.92 10 22 10 C22 13.3 22 16.6 22 20 C18.04 20 14.08 20 10 20 C10.1134549 23.95897882 10.2402125 27.91674032 10.375 31.875 C10.4059375 33.00292969 10.436875 34.13085938 10.46875 35.29296875 C10.50742188 36.36933594 10.54609375 37.44570312 10.5859375 38.5546875 C10.63306885 40.04718018 10.63306885 40.04718018 10.68115234 41.56982422 C10.77247083 44.17854517 10.77247083 44.17854517 13 46 C15.21072977 46.24253813 15.21072977 46.24253813 17.625 46.125 C18.44226563 46.10695312 19.25953125 46.08890625 20.1015625 46.0703125 C20.72804687 46.04710937 21.35453125 46.02390625 22 46 C22.29296875 52.0546875 22.29296875 52.0546875 22 54 C17.3316306 57.11224626 12.46692919 56.60583384 7 56 C3.80191525 54.73034838 1.57589875 53.1517975 0 50 C-0.08573394 47.74879258 -0.10712188 45.49500697 -0.09765625 43.2421875 C-0.0962413 42.57913605 -0.09482635 41.91608459 -0.09336853 41.23294067 C-0.08776754 39.11358137 -0.075215 36.99432741 -0.0625 34.875 C-0.05748512 33.43880361 -0.05292219 32.00260556 -0.04882812 30.56640625 C-0.03779782 27.04423655 -0.02053259 23.52212855 0 20 C-1.98 20 -3.96 20 -6 20 C-6 16.7 -6 13.4 -6 10 C-4.02 10 -2.04 10 0 10 C0 6.7 0 3.4 0 0 Z " fill="#FFFFFF" transform="translate(229,66)"/>
<path d="M0 0 C3.63 0 7.26 0 11 0 C11 13.2 11 26.4 11 40 C7.37 40 3.74 40 0 40 C0 26.8 0 13.6 0 0 Z " fill="#FFFFFF" transform="translate(317,81)"/>
<path d="M0 0 C3.63 0 7.26 0 11 0 C11 3.63 11 7.26 11 11 C7.37 11 3.74 11 0 11 C0 7.37 0 3.74 0 0 Z " fill="#FFFFFF" transform="translate(302,110)"/>
<path d="M0 0 C3.63 0 7.26 0 11 0 C11 3.63 11 7.26 11 11 C7.37 11 3.74 11 0 11 C0 7.37 0 3.74 0 0 Z " fill="#FFFFFF" transform="translate(317,66)"/>
</svg>
